<svg xmlns="http://www.w3.org/2000/svg" xmlns:xlink="http://www.w3.org/1999/xlink" version="1.1" x="0px" y="0px" viewBox="0 0 100 125" style="enable-background:new 0 0 100 100;" xml:space="preserve"><path d="M89,47c-2.3720703,0-3.6171875,1.2763672-4.6181641,2.3017578C83.4560547,50.25,82.7246094,51,81.1943359,51  c-1.5292969,0-2.2607422-0.7490234-3.1865234-1.6982422C77.0078125,48.2763672,75.7626953,47,73.3896484,47  c-2.3720703,0-3.6162109,1.2763672-4.6162109,2.3017578C67.8486328,50.2509766,67.1171875,51,65.5888672,51  c-1.5292969,0-2.2597656-0.7490234-3.1855469-1.6982422C61.4033203,48.2763672,60.1591797,47,57.7871094,47  s-3.6162109,1.2763672-4.6162109,2.3017578C52.2460938,50.2509766,51.515625,51,49.9873047,51  s-2.2587891-0.7490234-3.1835938-1.6982422C45.8046875,48.2763672,44.5605469,47,42.1894531,47  s-3.6162109,1.2763672-4.6152344,2.3017578C36.6494141,50.2509766,35.9189453,51,34.3916016,51  c-1.5283203,0-2.2587891-0.7490234-3.1835938-1.6982422C30.2089844,48.2763672,28.9648438,47,26.59375,47  s-3.6142578,1.2763672-4.6142578,2.3027344C21.0556641,50.2509766,20.3261719,51,18.7998047,51  c-1.5283203,0-2.2597656-0.7490234-3.1845703-1.6982422C14.6152344,48.2763672,13.3710938,47,11,47c-0.5527344,0-1,0.4472656-1,1  s0.4472656,1,1,1c1.5283203,0,2.2587891,0.7490234,3.1835938,1.6982422C15.1835938,51.7236328,16.4277344,53,18.7998047,53  c2.3701172,0,3.6132812-1.2763672,4.6123047-2.3017578C24.3369141,49.7490234,25.0664062,49,26.59375,49  s2.2578125,0.7490234,3.1826172,1.6982422C30.7753906,51.7236328,32.0205078,53,34.3916016,53  s3.6152344-1.2763672,4.6142578-2.3017578C39.9306641,49.7490234,40.6611328,49,42.1894531,49  c1.5273438,0,2.2578125,0.7490234,3.1826172,1.6982422C46.3710938,51.7236328,47.6162109,53,49.9873047,53  s3.6152344-1.2763672,4.6152344-2.3017578C55.5273438,49.7490234,56.2587891,49,57.7871094,49  s2.2587891,0.7490234,3.1845703,1.6982422C61.9716797,51.7236328,63.2167969,53,65.5888672,53  s3.6162109-1.2763672,4.6162109-2.3017578C71.1298828,49.7490234,71.8613281,49,73.3896484,49  c1.5292969,0,2.2607422,0.7490234,3.1865234,1.6982422C77.5761719,51.7236328,78.8212891,53,81.1943359,53  s3.6181641-1.2763672,4.6191406-2.3017578C86.7392578,49.7490234,87.4707031,49,89,49c0.5527344,0,1-0.4472656,1-1  S89.5527344,47,89,47z"/><text x="0" y="115" fill="#000000" font-size="5px" font-weight="bold" font-family="'Helvetica Neue', Helvetica, Arial-Unicode, Arial, Sans-serif">Created by Made by Made</text><text x="0" y="120" fill="#000000" font-size="5px" font-weight="bold" font-family="'Helvetica Neue', Helvetica, Arial-Unicode, Arial, Sans-serif">from the Noun Project</text></svg>